<?xml version="1.0" encoding="UTF-8" standalone="no"?>
<svg
   version="1.0"
   width="2048.000000pt"
   height="2048.000000pt"
   viewBox="0 0 2048.000000 2048.000000"
   preserveAspectRatio="xMidYMid meet"
   id="svg72"
   sodipodi:docname="generated-image_1_.svg"
   inkscape:version="1.4.3 (0d15f75042, 2025-12-25)"
   xmlns:inkscape="http://www.inkscape.org/namespaces/inkscape"
   xmlns:sodipodi="http://sodipodi.sourceforge.net/DTD/sodipodi-0.dtd"
   xmlns="http://www.w3.org/2000/svg"
   xmlns:svg="http://www.w3.org/2000/svg">
  <defs
     id="defs72" />
  <sodipodi:namedview
     id="namedview72"
     pagecolor="#505050"
     bordercolor="#eeeeee"
     borderopacity="1"
     inkscape:showpageshadow="0"
     inkscape:pageopacity="0"
     inkscape:pagecheckerboard="0"
     inkscape:deskcolor="#505050"
     inkscape:document-units="pt"
     inkscape:zoom="0.23657227"
     inkscape:cx="1361.1063"
     inkscape:cy="1331.517"
     inkscape:window-width="1536"
     inkscape:window-height="902"
     inkscape:window-x="0"
     inkscape:window-y="0"
     inkscape:window-maximized="1"
     inkscape:current-layer="svg72" />
  <g
     transform="matrix(0.0899316,0,0,-0.1,100.41782,2082.8731)"
     fill="#000000"
     stroke="none"
     id="g72"
     style="fill:#ffffff;fill-opacity:1;stroke:#276f21;stroke-opacity:1;stroke-width:47.45220017;stroke-dasharray:none">
    <path
       d="m 9065,19133 c -159,-12 -266,-26 -365,-48 -305,-65 -581,-170 -813,-311 -133,-81 -396,-267 -391,-276 3,-4 20,-8 38,-8 68,0 415,-72 481,-100 31,-13 159,-50 173,-50 7,0 31,12 55,27 23,15 83,45 132,68 191,89 366,141 580,171 146,20 416,15 538,-11 l 79,-16 35,28 c 185,148 359,264 486,324 26,13 47,26 47,29 0,8 -245,79 -370,108 -229,54 -520,80 -705,65 z"
       id="path1"
       style="fill:#ffffff;fill-opacity:1;stroke:#276f21;stroke-opacity:1;stroke-width:47.45220017;stroke-dasharray:none" />
    <path
       d="m 11205,19129 c -201,-13 -433,-62 -640,-136 -88,-31 -302,-132 -405,-190 -150,-85 -401,-260 -544,-380 -102,-86 -526,-490 -526,-502 0,-3 42,-28 92,-56 88,-48 299,-184 346,-222 l 24,-20 151,152 c 421,421 851,693 1237,784 171,40 198,43 362,48 183,6 338,-6 488,-38 275,-60 623,-219 856,-394 268,-201 550,-565 729,-940 98,-205 111,-234 125,-282 9,-27 19,-43 29,-43 9,0 78,16 154,35 76,18 188,42 248,52 60,10 109,21 109,24 0,30 -133,342 -204,479 -189,365 -371,615 -638,875 -123,121 -188,175 -373,310 -103,75 -357,205 -530,271 -337,130 -748,195 -1090,173 z"
       id="path2"
       style="fill:#ffffff;fill-opacity:1;stroke:#276f21;stroke-opacity:1;stroke-width:47.45220017;stroke-dasharray:none" />
    <path
       d="m 10835,18371 c -111,-39 -274,-111 -353,-157 l -43,-25 58,-39 c 93,-62 231,-176 391,-322 299,-274 499,-519 817,-1002 l 170,-258 130,6 c 111,5 188,15 428,53 38,6 48,17 23,26 -15,6 -130,177 -266,397 -194,312 -374,562 -552,766 -254,290 -595,595 -664,593 -16,0 -78,-17 -139,-38 z"
       id="path3"
       style="fill:#ffffff;fill-opacity:1;stroke:#276f21;stroke-opacity:1;stroke-width:47.45220017;stroke-dasharray:none" />
    <path
       d="m 6890,18384 c -287,-23 -659,-123 -888,-237 -350,-175 -594,-371 -833,-672 -109,-136 -232,-355 -292,-520 -28,-76 -88,-287 -106,-375 -73,-358 -71,-749 5,-1225 27,-172 47,-267 157,-765 25,-113 48,-223 52,-245 3,-22 10,-58 16,-80 5,-22 13,-86 17,-141 l 7,-102 130,85 c 115,75 161,111 278,213 16,14 38,37 48,52 21,29 22,12 -21,253 -5,28 -23,115 -40,195 -58,276 -85,416 -119,615 -30,177 -36,276 -36,560 0,247 3,318 18,405 50,284 137,504 277,700 172,243 443,469 710,592 149,69 203,87 370,127 181,43 307,55 500,48 342,-12 626,-82 1067,-263 189,-77 518,-243 653,-328 273,-174 409,-268 637,-438 95,-70 179,-128 187,-128 45,0 331,138 442,213 l 73,49 -62,46 c -34,25 -138,105 -232,177 -183,142 -475,349 -645,457 -625,395 -1247,634 -1853,712 -117,15 -430,27 -517,20 z"
       id="path4"
       style="fill:#ffffff;fill-opacity:1;stroke:#276f21;stroke-opacity:1;stroke-width:47.45220017;stroke-dasharray:none" />
    <path
       d="m 13460,18321 c 118,-136 187,-225 260,-336 139,-211 113,-188 237,-214 357,-78 658,-247 934,-524 172,-172 317,-390 392,-592 120,-318 161,-568 162,-975 0,-308 -16,-533 -50,-710 -14,-69 -25,-125 -25,-125 0,0 82,40 183,89 186,91 228,111 307,141 90,35 87,31 93,103 41,447 31,810 -29,1142 -43,239 -137,527 -233,720 -217,433 -586,804 -1019,1023 -342,173 -683,262 -1127,292 -49,4 -99,9 -110,12 -13,4 -6,-9 25,-46 z"
       id="path5"
       style="fill:#ffffff;fill-opacity:1;stroke:#276f21;stroke-opacity:1;stroke-width:47.45220017;stroke-dasharray:none" />
    <path
       d="m 12235,18061 c -104,-43 -233,-98 -285,-123 -52,-25 -112,-53 -134,-62 l -38,-16 57,-61 c 69,-75 182,-220 242,-311 25,-38 47,-68 49,-68 2,0 22,11 44,25 34,22 155,81 265,131 124,55 349,129 440,143 l 40,7 -145,145 c -137,136 -302,270 -332,268 -7,0 -98,-36 -203,-78 z"
       id="path6"
       style="fill:#ffffff;fill-opacity:1;stroke:#276f21;stroke-opacity:1;stroke-width:47.45220017;stroke-dasharray:none" />
    <path
       d="m 6923,17698 c -30,-32 -147,-236 -195,-338 -22,-47 -52,-112 -68,-145 -35,-75 -60,-135 -60,-146 0,-5 12,-9 28,-9 45,0 249,-39 376,-71 65,-16 119,-28 121,-27 6,10 55,120 55,124 0,3 25,56 56,118 59,117 220,368 273,425 17,19 30,35 29,36 -6,6 -197,35 -288,45 -52,5 -143,10 -201,10 -97,0 -107,-2 -126,-22 z"
       id="path7"
       style="fill:#ffffff;fill-opacity:1;stroke:#276f21;stroke-opacity:1;stroke-width:47.45220017;stroke-dasharray:none" />
    <path
       d="m 10925,17334 c -169,-137 -526,-404 -640,-481 -350,-234 -721,-367 -1105,-398 -41,-3 -127,-6 -191,-7 l -117,-1 -77,-109 c -76,-108 -184,-241 -283,-348 l -51,-55 62,-6 c 34,-4 170,-7 302,-8 453,-3 752,42 1135,169 107,36 319,136 472,223 92,53 334,222 472,330 312,245 432,335 474,355 17,9 32,19 32,23 0,21 -333,420 -349,418 -3,0 -64,-48 -136,-105 z"
       id="path8"
       style="fill:#ffffff;fill-opacity:1;stroke:#276f21;stroke-opacity:1;stroke-width:47.45220017;stroke-dasharray:none" />
    <path
       d="m 8597,17201 c -58,-87 -487,-654 -576,-761 -212,-254 -372,-399 -636,-576 -77,-51 -199,-124 -270,-161 l -130,-68 -13,-80 c -31,-190 -91,-412 -147,-549 -7,-17 -5,-18 20,-12 122,31 633,294 835,430 362,243 630,506 932,913 296,399 399,534 455,596 14,15 24,29 22,30 -60,41 -456,277 -464,277 -1,0 -14,-18 -28,-39 z"
       id="path9"
       style="fill:#ffffff;fill-opacity:1;stroke:#276f21;stroke-opacity:1;stroke-width:47.45220017;stroke-dasharray:none" />
    <path
       d="m 5647,16948 c -50,-79 -80,-135 -111,-213 -15,-38 -32,-79 -36,-90 -18,-40 -40,-116 -46,-156 -6,-38 -6,-40 17,-35 66,16 224,26 400,26 416,0 776,-56 1287,-201 17,-5 47,-13 65,-18 17,-5 64,-19 102,-30 39,-12 95,-28 125,-36 30,-8 65,-19 77,-25 17,-7 29,-3 60,19 95,70 386,388 361,395 -7,3 -47,12 -88,22 -41,9 -169,46 -285,81 -524,160 -989,262 -1330,292 -66,6 -220,13 -342,17 l -222,6 z"
       id="path10"
       style="fill:#ffffff;fill-opacity:1;stroke:#276f21;stroke-opacity:1;stroke-width:47.45220017;stroke-dasharray:none" />
    <path
       d="m 14560,16934 c -19,-2 -91,-9 -160,-14 -282,-24 -627,-94 -1080,-220 -399,-110 -685,-183 -820,-209 -277,-51 -554,-77 -740,-67 -246,14 -543,62 -676,110 l -68,25 -60,-52 c -117,-101 -309,-234 -408,-283 -54,-26 -73,-44 -47,-44 12,0 211,-72 264,-95 39,-17 259,-79 355,-99 153,-33 368,-66 510,-77 151,-12 494,-7 625,10 322,41 560,92 910,193 77,22 154,44 170,48 149,39 228,61 266,73 24,8 91,26 149,40 308,75 453,102 715,132 183,22 549,23 658,3 l 79,-15 -7,36 c -22,116 -164,411 -233,484 l -26,27 -170,-2 c -94,0 -187,-3 -206,-4 z"
       id="path11"
       style="fill:#ffffff;fill-opacity:1;stroke:#276f21;stroke-opacity:1;stroke-width:47.45220017;stroke-dasharray:none" />
    <path
       d="m 4648,16910 c -81,-33 -329,-163 -428,-225 -463,-288 -796,-708 -963,-1215 -34,-104 -107,-400 -107,-436 0,-3 20,9 44,25 24,17 115,65 202,107 177,86 174,84 264,115 125,43 120,39 150,125 105,310 345,599 678,817 l 92,61 v 43 c 0,81 45,345 74,435 7,24 19,64 26,91 7,26 17,50 21,53 11,6 12,24 2,23 -5,0 -29,-9 -55,-19 z"
       id="path12"
       style="fill:#ffffff;fill-opacity:1;stroke:#276f21;stroke-opacity:1;stroke-width:47.45220017;stroke-dasharray:none" />
    <path
       d="m 15932,16853 c 69,-134 137,-398 154,-591 4,-42 9,-82 13,-88 3,-7 53,-43 111,-82 225,-150 478,-448 571,-672 12,-30 25,-58 28,-62 3,-4 42,2 85,12 116,28 287,50 388,50 48,0 88,4 88,9 0,30 -136,309 -205,421 -250,406 -597,708 -1081,942 -140,67 -159,75 -152,61 z"
       id="path13"
       style="fill:#ffffff;fill-opacity:1;stroke:#276f21;stroke-opacity:1;stroke-width:47.45220017;stroke-dasharray:none" />
    <path
       d="m 6396,16188 c -10,-62 -24,-149 -32,-193 -8,-44 -23,-132 -33,-195 -65,-391 -136,-631 -261,-882 -121,-241 -250,-419 -450,-618 -215,-215 -407,-352 -732,-519 -137,-71 -582,-271 -602,-271 -3,0 -16,-4 -30,-10 l -26,-9 78,-128 c 43,-70 104,-174 136,-230 31,-56 60,-104 64,-107 5,-3 37,10 72,27 36,18 88,42 115,54 351,154 639,305 860,451 554,368 995,965 1170,1587 9,33 21,71 25,85 24,70 77,352 121,635 12,78 50,255 64,301 6,19 -3,23 -117,52 -122,32 -362,82 -390,82 -11,0 -19,-29 -32,-112 z"
       id="path14"
       style="fill:#ffffff;fill-opacity:1;stroke:#276f21;stroke-opacity:1;stroke-width:47.45220017;stroke-dasharray:none" />
    <path
       d="m 14110,16209 c -47,-10 -110,-24 -140,-30 -30,-6 -88,-20 -128,-30 -40,-11 -81,-19 -92,-19 -28,0 -31,-11 -15,-58 15,-43 29,-108 66,-305 17,-93 25,-120 41,-128 31,-17 162,-54 313,-88 77,-17 157,-36 178,-42 22,-6 41,-8 44,-5 3,3 1,25 -5,48 -6,24 -27,133 -47,243 -83,465 -76,435 -105,434 -14,0 -63,-9 -110,-20 z"
       id="path15"
       style="fill:#ffffff;fill-opacity:1;stroke:#276f21;stroke-opacity:1;stroke-width:47.45220017;stroke-dasharray:none" />
    <path
       d="m 13039,15926 c -17,-17 -406,-102 -548,-119 l -94,-12 95,-82 c 353,-305 689,-517 1058,-666 305,-122 559,-179 1115,-246 331,-40 506,-52 523,-37 16,15 37,118 77,370 20,132 21,126 -22,126 -126,0 -781,80 -980,120 -244,49 -359,81 -526,149 -191,78 -453,235 -589,352 -50,43 -93,61 -109,45 z"
       id="path16"
       style="fill:#ffffff;fill-opacity:1;stroke:#276f21;stroke-opacity:1;stroke-width:47.45220017;stroke-dasharray:none" />
    <path
       d="m 6080,15499 c -19,-4 -138,-14 -265,-23 -410,-29 -376,-25 -370,-49 2,-12 25,-125 51,-252 25,-126 47,-231 48,-232 5,-6 382,31 391,38 6,4 28,49 49,101 21,51 42,102 47,113 24,56 92,292 87,303 -2,5 -19,5 -38,1 z"
       id="path17"
       style="fill:#ffffff;fill-opacity:1;stroke:#276f21;stroke-opacity:1;stroke-width:47.45220017;stroke-dasharray:none" />
    <path
       d="m 4550,15360 c -289,-45 -744,-177 -1000,-290 -606,-267 -1071,-772 -1271,-1382 -121,-370 -140,-762 -60,-1222 12,-66 24,-122 27,-125 3,-3 12,3 20,14 51,72 188,209 402,402 l 42,38 4,215 c 4,221 15,308 56,445 12,39 26,86 32,105 24,84 103,245 170,348 154,235 300,382 533,539 94,63 281,161 350,183 22,7 45,16 50,20 16,12 188,65 415,128 97,27 264,61 341,69 l 60,6 -7,41 c -3,23 -15,77 -26,121 -24,95 -58,289 -58,328 0,29 -1,30 -80,17 z"
       id="path18"
       style="fill:#ffffff;fill-opacity:1;stroke:#276f21;stroke-opacity:1;stroke-width:47.45220017;stroke-dasharray:none" />
    <path
       d="m 17300,15243 c -331,-23 -771,-127 -975,-230 -156,-79 -300,-194 -464,-371 -52,-56 -96,-100 -99,-98 -10,11 250,353 301,395 42,34 8,30 -78,-9 -11,-5 -81,-35 -155,-66 -272,-114 -637,-315 -813,-448 -191,-144 -329,-351 -465,-696 -37,-94 -132,-401 -132,-427 0,-7 -4,-13 -10,-13 -12,0 -12,7 0,89 6,36 15,95 21,131 18,119 48,251 78,340 5,14 17,52 27,85 21,73 63,167 98,223 14,23 24,42 20,42 -8,0 -156,-109 -317,-233 -213,-165 -405,-334 -583,-512 -211,-212 -272,-297 -314,-435 -12,-41 -26,-84 -30,-95 -13,-31 -43,-190 -60,-313 -11,-83 -29,-331 -30,-406 0,-32 -3,-37 -12,-28 -10,10 -13,84 -13,300 0,310 6,362 70,567 13,43 23,81 21,83 -6,5 -193,-210 -273,-313 -38,-49 -102,-130 -143,-180 -40,-49 -87,-122 -106,-160 -66,-142 -95,-408 -74,-674 6,-79 9,-145 6,-148 -8,-8 -25,67 -37,159 -13,108 -17,403 -6,483 7,53 7,58 -5,40 -22,-31 -74,-164 -87,-220 -6,-27 -18,-115 -26,-194 -21,-200 -6,-474 41,-758 21,-125 16,-156 -13,-78 -56,157 -107,367 -123,510 -19,175 -11,428 16,520 10,32 -35,-23 -150,-185 -152,-214 -243,-357 -326,-515 -23,-44 -55,-102 -70,-130 -15,-27 -71,-135 -125,-240 -54,-104 -117,-226 -140,-270 -39,-75 -54,-115 -87,-240 -9,-35 -13,-118 -12,-270 0,-209 2,-228 33,-380 19,-88 60,-242 92,-343 33,-100 59,-185 59,-188 0,-40 -123,194 -185,351 -60,152 -91,255 -110,367 -18,101 -21,337 -5,417 20,103 6,94 -35,-24 -16,-44 -31,-84 -35,-90 -11,-17 -49,-146 -69,-235 -40,-176 -44,-223 -38,-401 8,-237 31,-339 147,-649 32,-85 61,-166 65,-180 6,-24 5,-24 -10,-5 -30,38 -117,190 -181,316 -113,226 -150,376 -141,574 5,110 5,117 -8,81 -8,-22 -24,-89 -36,-150 -19,-95 -21,-131 -16,-256 7,-194 43,-327 149,-564 104,-231 138,-339 138,-440 0,-96 -10,-111 -115,-161 -98,-47 -125,-73 -143,-137 -11,-41 -2,-100 24,-151 19,-36 12,-66 -45,-190 -21,-45 -57,-127 -81,-182 -85,-200 -78,-189 -150,-233 -101,-63 -115,-82 -115,-155 0,-38 6,-74 16,-92 9,-16 23,-43 31,-58 15,-26 14,-33 -17,-105 -120,-285 -329,-634 -509,-852 -110,-132 -103,-106 -81,-340 29,-299 16,-932 -21,-984 -8,-12 -14,-44 -14,-76 0,-30 -5,-93 -10,-140 -16,-138 -40,-361 -40,-377 0,-12 -3,-13 -14,-4 -8,7 -15,43 -19,94 -9,130 -31,167 -98,167 -33,0 -42,5 -61,35 -13,19 -31,35 -40,35 -9,0 -30,8 -47,18 -26,14 -33,15 -40,3 -5,-8 -14,-10 -21,-6 -8,5 -11,4 -7,-2 4,-6 -2,-13 -13,-16 -16,-4 -18,-9 -10,-36 11,-38 -6,-43 -20,-6 -9,23 -15,25 -68,25 -33,0 -66,6 -77,14 -11,7 -40,17 -65,21 -25,3 -74,15 -110,25 -278,80 -856,130 -1153,101 -346,-34 -501,-61 -1057,-181 -601,-130 -902,-165 -1350,-158 -303,6 -442,19 -594,58 -39,10 -73,16 -75,14 -9,-8 101,-323 138,-395 46,-90 83,-150 102,-166 26,-20 183,-35 446,-40 425,-9 720,21 1223,127 58,12 143,30 190,40 273,57 506,102 620,120 41,6 100,15 130,20 198,32 371,43 595,37 338,-9 512,-33 765,-104 69,-19 154,-40 190,-45 36,-6 69,-14 73,-18 8,-7 -254,-206 -443,-335 -63,-43 -117,-80 -118,-81 -9,-7 276,-363 326,-408 25,-22 -15,-49 417,271 77,57 149,110 160,118 11,8 58,41 105,74 163,116 397,250 592,340 107,50 128,56 328,106 195,48 399,75 567,75 h 99 l 17,30 c 50,84 308,413 374,477 13,12 23,25 23,29 0,12 -610,-4 -735,-20 -236,-29 -402,-62 -589,-117 -268,-79 -387,-142 -538,-286 -68,-65 -98,-85 -98,-67 0,6 94,134 224,304 141,186 150,207 104,242 -32,24 -107,54 -158,64 -14,3 -35,7 -48,10 -14,3 -20,9 -16,16 9,14 28,138 50,328 24,202 25,599 1,727 l -17,93 118,117 c 118,118 203,227 280,358 94,162 218,409 242,483 10,33 18,42 36,42 30,0 102,-24 187,-63 l 69,-31 -7,-35 c -4,-20 -10,-40 -14,-46 -5,-5 -27,-64 -50,-130 -24,-66 -47,-129 -51,-140 -17,-38 -60,-177 -60,-191 0,-8 -4,-22 -10,-32 -19,-34 -43,-168 -44,-242 0,-41 5,-105 12,-142 22,-123 -3,-170 -156,-296 -59,-49 -98,-105 -164,-242 -70,-143 -229,-502 -243,-548 -8,-27 9,-52 35,-52 11,0 20,-10 24,-25 4,-14 10,-25 15,-25 5,0 35,33 67,73 95,120 578,595 710,700 l 121,95 6,129 c 6,121 25,285 46,398 5,28 14,79 20,113 29,162 119,455 149,483 9,9 45,26 78,38 65,24 110,63 139,120 20,41 14,96 -17,152 l -20,36 40,84 c 44,91 162,373 162,385 0,5 7,27 16,50 13,35 22,43 56,54 56,16 116,58 134,91 22,44 18,120 -8,158 -13,17 -36,49 -52,72 -30,40 -30,41 -12,73 29,55 158,143 271,185 92,34 255,70 415,92 211,27 352,64 470,121 54,27 195,119 230,150 14,13 49,43 78,67 29,24 51,45 49,47 -2,2 -39,-16 -83,-41 -85,-49 -229,-98 -335,-115 -36,-5 -162,-14 -280,-20 -280,-13 -362,-24 -544,-69 -119,-30 37,46 171,82 99,27 168,40 294,56 251,31 331,45 422,72 119,35 249,99 338,165 65,48 274,253 266,261 -2,2 -37,-18 -77,-45 -203,-136 -387,-194 -734,-232 -276,-30 -511,-73 -590,-109 -11,-5 -30,-12 -43,-14 -43,-10 -9,16 72,53 147,68 365,134 731,221 56,13 217,76 298,115 231,113 416,302 539,549 25,50 83,182 129,295 45,113 102,242 126,288 24,45 43,87 43,92 0,5 -46,-13 -102,-40 -117,-55 -186,-79 -327,-115 -109,-28 -392,-77 -399,-70 -6,6 41,23 113,42 76,19 347,100 383,115 123,50 261,116 307,148 81,57 295,300 295,337 0,6 -48,-9 -112,-37 -196,-84 -472,-144 -988,-215 -107,-15 -203,-31 -212,-36 -23,-12 -99,-12 -78,0 22,13 194,62 445,126 517,132 807,241 977,366 124,93 177,167 320,455 53,105 113,222 133,260 36,66 185,281 258,374 20,24 34,46 33,48 -2,2 -31,-6 -65,-18 -74,-24 -288,-65 -426,-80 -495,-54 -563,-52 -290,8 77,17 201,43 275,57 145,28 372,81 405,95 11,5 41,18 67,29 73,31 132,75 190,145 75,89 98,119 94,123 -2,2 -37,-5 -77,-16 -114,-31 -213,-51 -339,-67 -113,-14 -238,-19 -228,-9 3,3 83,19 178,35 170,30 207,38 343,79 100,30 149,56 201,108 46,47 61,81 31,69 -76,-29 -271,-65 -460,-86 -60,-7 -220,-26 -355,-42 -135,-17 -265,-32 -290,-34 l -45,-4 50,18 c 70,26 144,43 515,117 372,74 469,100 595,160 147,70 217,140 345,348 137,223 324,453 549,675 l 135,132 -100,-1 c -240,-1 -711,-17 -726,-24 -10,-4 -18,-3 -18,3 0,5 10,13 23,16 47,14 308,46 457,56 290,20 391,30 423,44 18,7 82,46 142,86 122,82 355,203 443,230 l 57,18 -35,15 c -97,42 -364,87 -512,87 -59,0 -98,4 -98,10 0,6 3,10 8,11 92,10 285,14 378,7 117,-7 147,-13 313,-56 69,-18 81,-19 155,-6 111,20 324,19 422,-1 44,-9 111,-29 149,-45 39,-15 72,-26 74,-24 7,7 -80,115 -133,165 -111,105 -242,189 -385,246 -125,50 -136,65 -29,37 223,-57 441,-210 566,-396 28,-42 62,-84 74,-92 58,-40 191,-185 215,-234 14,-29 28,-51 30,-48 3,2 -3,43 -12,91 -39,209 -134,388 -287,538 -55,53 -95,97 -91,97 5,0 38,-21 73,-47 261,-189 406,-489 426,-883 16,-299 -111,-556 -328,-664 -132,-67 -293,-75 -404,-21 -82,40 -159,121 -179,187 -41,139 15,277 137,339 98,50 256,0 283,-90 12,-39 28,-8 21,41 -14,95 -85,166 -200,202 -46,15 -79,18 -155,14 -127,-6 -204,-41 -301,-137 -123,-121 -168,-264 -141,-451 19,-135 56,-217 141,-314 97,-110 210,-185 355,-234 145,-48 382,-54 540,-12 92,25 219,82 297,134 59,39 177,155 233,228 42,56 106,174 130,238 9,25 21,54 26,65 52,115 76,444 45,616 -82,461 -384,841 -840,1060 -247,118 -468,177 -796,214 -120,13 -345,17 -470,8 z m -1150,-854 c -14,-11 -52,-39 -85,-61 -668,-463 -1451,-1249 -2056,-2064 -372,-502 -621,-883 -897,-1374 -14,-25 -47,-83 -74,-129 -26,-46 -48,-85 -48,-87 0,-2 -15,-29 -34,-61 -72,-125 -224,-423 -343,-673 -80,-168 -203,-431 -203,-435 0,-2 -18,-43 -40,-90 -22,-47 -40,-88 -40,-90 0,-2 -13,-32 -29,-67 -16,-35 -41,-92 -56,-128 -15,-36 -35,-83 -45,-105 -49,-111 -66,-150 -115,-275 -30,-74 -84,-207 -120,-295 -72,-173 -99,-245 -94,-248 2,-1 33,-18 69,-36 36,-19 88,-49 115,-67 58,-39 151,-121 144,-128 -3,-3 -52,19 -109,48 -142,73 -298,130 -525,192 l -190,52 39,17 c 28,12 63,16 129,14 l 91,-2 33,84 c 18,46 37,93 42,104 16,34 91,215 91,220 0,2 13,32 29,67 16,35 39,87 51,117 11,29 45,103 74,165 30,61 65,138 79,172 58,137 294,615 449,909 347,657 824,1407 1235,1944 233,304 509,638 674,817 568,616 1026,1020 1574,1386 104,70 195,128 200,128 6,0 -1,-10 -15,-21 z m 3087,-931 c -3,-8 -6,-5 -6,6 -1,11 2,17 5,13 3,-3 4,-12 1,-19 z m -7,-38 c 0,-18 -70,-152 -111,-211 -52,-78 -166,-179 -246,-222 -79,-41 -183,-72 -277,-82 -64,-7 -163,1 -152,12 3,3 43,9 88,14 187,19 353,95 486,223 64,61 143,168 176,239 16,35 36,50 36,27 z m -6169,-731 c -32,-73 -76,-389 -82,-584 -2,-53 -3,-49 -10,35 -14,164 22,433 72,539 21,44 38,53 20,10 z m -1311,-2450 c 0,-35 33,-190 59,-274 10,-33 37,-119 60,-190 22,-72 41,-137 41,-145 -1,-23 -44,65 -78,160 -67,184 -128,507 -92,485 6,-3 10,-19 10,-36 z m -320,-563 c 13,-44 35,-120 51,-170 16,-49 27,-91 25,-93 -5,-6 -64,130 -76,177 -19,68 -40,173 -39,190 1,22 13,-11 39,-104 z m 40,-1580 c 193,-31 402,-125 588,-264 116,-87 92,-97 -62,-26 -56,25 -119,54 -142,64 -49,22 -298,108 -404,140 -41,13 -88,29 -103,37 -44,22 -29,50 33,62 3,0 43,-5 90,-13 z m 84,-214 c 77,-36 80,-47 41,-127 -13,-27 -25,-55 -25,-61 0,-6 -6,-24 -14,-40 -8,-16 -26,-56 -41,-89 -44,-99 -49,-109 -70,-142 -24,-39 -32,-40 -150,-9 -99,26 -109,37 -82,91 8,16 24,50 35,75 11,25 35,79 54,120 19,41 48,108 64,148 l 29,74 46,-5 c 25,-2 76,-18 113,-35 z m -222,-555 c 114,-39 216,-91 338,-172 67,-45 138,-111 128,-120 -3,-3 -39,15 -80,40 -80,48 -160,81 -297,122 -159,47 -376,110 -403,117 -16,3 -28,10 -28,15 0,20 60,30 160,28 82,-3 122,-9 182,-30 z m -257,-162 c 172,-37 403,-140 571,-256 108,-74 42,-60 -172,37 -56,25 -207,80 -337,123 -121,41 -194,81 -181,102 7,13 38,11 119,-6 z m 220,-1550 c -38,-31 -49,-21 -11,11 15,14 31,22 35,19 3,-4 -7,-17 -24,-30 z"
       id="path19"
       style="fill:#ffffff;fill-opacity:1;stroke:#276f21;stroke-opacity:1;stroke-width:47.45220017;stroke-dasharray:none" />
    <path
       d="m 13930,14782 c 0,-14 192,-403 243,-492 23,-41 56,-99 72,-127 17,-29 35,-53 40,-53 6,0 29,18 50,41 31,31 203,157 367,270 5,3 -13,41 -40,85 -27,43 -58,97 -70,120 l -21,41 -133,17 c -195,25 -446,75 -490,98 -11,5 -18,5 -18,0 z"
       id="path20"
       style="fill:#ffffff;fill-opacity:1;stroke:#276f21;stroke-opacity:1;stroke-width:47.45220017;stroke-dasharray:none" />
    <path
       d="m 3705,14392 c -184,-99 -405,-277 -405,-325 0,-27 54,-226 90,-332 114,-337 238,-576 725,-1405 356,-606 494,-1001 519,-1485 9,-172 -15,-438 -48,-534 l -13,-38 89,-99 c 100,-111 218,-265 281,-366 23,-37 44,-67 47,-68 4,0 22,56 71,230 14,47 23,89 43,185 42,208 44,226 56,440 19,357 -25,710 -134,1064 -85,277 -297,718 -530,1106 -222,368 -376,635 -418,725 -168,358 -212,479 -267,735 -6,28 -12,85 -13,128 -2,43 -7,77 -13,77 -5,0 -41,-18 -80,-38 z"
       id="path21"
       style="fill:#ffffff;fill-opacity:1;stroke:#276f21;stroke-opacity:1;stroke-width:47.45220017;stroke-dasharray:none" />
    <path
       d="m 17170,13914 c -197,-157 -403,-366 -593,-602 -71,-88 -380,-549 -468,-697 -29,-50 -75,-123 -102,-163 l -49,-72 63,-88 c 76,-105 241,-311 251,-312 4,0 9,9 13,19 3,11 56,95 117,188 61,92 133,204 161,248 86,138 312,567 366,695 13,30 37,84 53,119 16,35 36,81 43,102 8,22 21,54 29,72 20,42 77,195 83,225 3,12 9,25 14,28 5,3 9,15 9,28 0,12 4,26 8,32 5,5 19,38 32,74 12,36 34,88 49,115 14,28 27,53 29,58 10,20 -23,0 -108,-69 z"
       id="path22"
       style="fill:#ffffff;fill-opacity:1;stroke:#276f21;stroke-opacity:1;stroke-width:47.45220017;stroke-dasharray:none" />
    <path
       d="m 5575,13398 c -68,-52 -234,-146 -385,-220 -80,-39 -146,-72 -147,-72 -1,-1 -11,-49 -23,-106 -18,-91 -64,-253 -89,-315 -20,-49 -31,-75 -67,-150 l -37,-79 22,-41 c 53,-93 192,-376 219,-446 17,-42 34,-93 37,-113 4,-21 11,-34 15,-29 12,12 130,246 164,323 32,72 54,125 66,155 4,11 15,36 23,55 27,64 115,334 132,405 15,68 22,97 44,180 17,67 45,241 60,375 5,41 12,83 16,93 10,24 -4,20 -50,-15 z"
       id="path23"
       style="fill:#ffffff;fill-opacity:1;stroke:#276f21;stroke-opacity:1;stroke-width:47.45220017;stroke-dasharray:none" />
    <path
       d="m 3304,13034 c -544,-352 -924,-713 -1174,-1114 -57,-91 -180,-330 -180,-349 0,-6 -4,-19 -10,-29 -20,-36 -71,-206 -101,-337 -17,-78 -39,-252 -48,-390 -9,-128 -3,-287 14,-410 44,-306 93,-497 177,-690 50,-113 121,-255 128,-255 3,0 17,31 33,69 32,79 141,274 233,413 l 63,98 -28,87 c -30,94 -41,140 -65,273 -52,290 -16,648 97,965 101,285 338,593 667,867 121,100 327,252 367,271 13,5 23,14 23,19 0,4 5,8 11,8 5,0 36,17 67,38 31,21 82,52 112,67 30,16 56,30 58,31 2,1 -23,44 -55,95 -31,52 -91,160 -133,241 l -76,148 z"
       id="path24"
       style="fill:#ffffff;fill-opacity:1;stroke:#276f21;stroke-opacity:1;stroke-width:47.45220017;stroke-dasharray:none" />
    <path
       d="m 17083,13133 c -35,-99 -163,-355 -212,-427 -17,-24 -31,-48 -31,-53 0,-4 37,-33 82,-63 160,-108 346,-264 469,-393 l 46,-49 11,29 c 67,175 112,336 133,473 l 13,84 -74,68 c -41,38 -122,105 -180,150 -58,45 -138,108 -178,140 -62,50 -73,56 -79,41 z"
       id="path25"
       style="fill:#ffffff;fill-opacity:1;stroke:#276f21;stroke-opacity:1;stroke-width:47.45220017;stroke-dasharray:none" />
    <path
       d="m 17731,12623 c -20,-118 -62,-273 -97,-360 -65,-162 -144,-331 -191,-413 -71,-122 -104,-175 -176,-278 -158,-230 -302,-411 -496,-626 -119,-131 -211,-229 -564,-593 -105,-109 -103,-96 -32,-273 52,-129 165,-370 174,-370 3,1 23,22 43,48 21,26 108,122 195,214 623,661 634,673 809,883 165,197 354,461 451,630 65,113 169,326 216,442 63,154 129,386 139,482 l 3,34 -70,22 c -38,12 -95,34 -125,48 -65,30 -204,119 -241,154 l -27,25 z"
       id="path26"
       style="fill:#ffffff;fill-opacity:1;stroke:#276f21;stroke-opacity:1;stroke-width:47.45220017;stroke-dasharray:none" />
    <path
       d="m 15842,12223 c -11,-16 -41,-59 -67,-98 -26,-38 -82,-112 -124,-164 -42,-51 -84,-104 -94,-117 -17,-22 -17,-24 27,-86 115,-164 372,-439 700,-750 l 189,-178 21,22 c 11,13 68,75 126,138 143,155 175,190 199,221 l 21,27 -78,67 c -343,300 -685,654 -827,858 -33,47 -63,86 -66,86 -3,1 -15,-11 -27,-26 z"
       id="path27"
       style="fill:#ffffff;fill-opacity:1;stroke:#276f21;stroke-opacity:1;stroke-width:47.45220017;stroke-dasharray:none" />
    <path
       d="m 18252,12024 c -35,-132 -123,-333 -215,-493 -43,-75 -46,-85 -33,-100 25,-27 84,-165 111,-259 82,-284 95,-551 39,-832 -16,-79 -40,-172 -53,-205 -5,-11 -19,-47 -31,-80 -62,-163 -200,-393 -347,-578 -152,-191 -496,-516 -680,-645 -45,-31 -82,-61 -82,-65 -1,-4 37,-65 83,-135 46,-70 109,-172 141,-227 68,-119 64,-114 78,-95 7,9 53,47 102,85 464,359 902,852 1097,1235 52,101 102,217 128,290 7,19 16,44 21,55 11,25 57,206 70,277 33,174 40,268 35,478 -4,205 -16,308 -55,475 -51,222 -156,486 -258,652 -21,34 -58,96 -83,137 -25,42 -47,76 -50,76 -3,0 -11,-21 -18,-46 z"
       id="path28"
       style="fill:#ffffff;fill-opacity:1;stroke:#276f21;stroke-opacity:1;stroke-width:47.45220017;stroke-dasharray:none" />
    <path
       d="m 2920,11854 c -99,-114 -207,-259 -247,-331 l -32,-58 67,-110 c 37,-61 91,-144 118,-185 54,-79 259,-346 273,-354 4,-3 61,48 127,113 65,64 156,151 201,192 l 82,74 -62,65 c -135,139 -289,354 -383,533 -29,56 -54,112 -54,125 0,12 -3,22 -7,22 -5,0 -42,-39 -83,-86 z"
       id="path29"
       style="fill:#ffffff;fill-opacity:1;stroke:#276f21;stroke-opacity:1;stroke-width:47.45220017;stroke-dasharray:none" />
    <path
       d="m 4203,11665 c -43,-50 -413,-399 -593,-560 -239,-214 -595,-577 -785,-800 -247,-290 -510,-717 -636,-1032 -129,-323 -188,-701 -160,-1023 24,-279 60,-439 159,-706 66,-178 215,-443 348,-619 74,-99 250,-295 258,-288 3,4 6,40 6,81 0,88 21,235 50,352 5,19 18,73 30,120 11,47 25,96 31,109 8,20 1,35 -50,111 -196,286 -301,637 -301,1010 0,488 219,983 675,1529 219,262 439,485 915,926 179,166 278,262 289,280 20,35 -15,165 -116,423 -31,78 -60,142 -64,142 -4,0 -29,-25 -56,-55 z"
       id="path30"
       style="fill:#ffffff;fill-opacity:1;stroke:#276f21;stroke-opacity:1;stroke-width:47.45220017;stroke-dasharray:none" />
    <path
       d="m 15516,11493 c -61,-256 -87,-392 -107,-566 -22,-199 5,-634 50,-797 5,-19 19,-75 31,-125 12,-49 25,-99 30,-110 4,-11 27,-72 50,-135 115,-310 238,-516 802,-1345 140,-206 220,-339 318,-530 192,-372 291,-648 307,-857 3,-43 8,-78 10,-78 3,0 53,38 111,84 108,85 265,238 317,310 l 28,38 -17,72 c -20,80 -88,272 -139,392 -141,326 -312,621 -662,1139 -295,435 -430,655 -527,856 -53,109 -123,301 -141,389 -31,147 -36,177 -48,305 -13,144 0,381 28,504 l 14,64 -104,106 c -157,161 -266,280 -294,323 -14,21 -28,38 -32,38 -3,0 -14,-35 -25,-77 z"
       id="path31"
       style="fill:#ffffff;fill-opacity:1;stroke:#276f21;stroke-opacity:1;stroke-width:47.45220017;stroke-dasharray:none" />
    <path
       d="m 17345,10583 c -33,-42 -115,-132 -182,-199 l -121,-123 71,-58 c 170,-139 464,-495 502,-608 6,-19 8,-18 32,10 45,54 187,278 236,373 l 48,92 -37,62 c -21,34 -72,103 -113,152 -94,113 -350,376 -365,375 -6,0 -38,-34 -71,-76 z"
       id="path32"
       style="fill:#ffffff;fill-opacity:1;stroke:#276f21;stroke-opacity:1;stroke-width:47.45220017;stroke-dasharray:none" />
    <path
       d="m 3856,10407 -200,-193 169,-165 c 341,-334 566,-620 737,-939 224,-416 310,-944 248,-1520 -21,-197 -57,-422 -89,-565 -44,-193 -111,-520 -111,-540 0,-14 68,-37 255,-89 50,-14 125,-35 168,-47 43,-12 80,-19 83,-16 3,3 12,43 20,88 8,46 19,105 24,132 6,26 14,68 19,95 10,47 26,117 41,182 15,58 31,133 39,180 5,25 15,79 24,120 63,307 98,771 78,1030 -35,455 -132,820 -318,1194 -164,332 -416,666 -789,1046 -79,80 -153,157 -166,173 -13,15 -26,27 -28,27 -3,0 -95,-87 -204,-193 z"
       id="path33"
       style="fill:#ffffff;fill-opacity:1;stroke:#276f21;stroke-opacity:1;stroke-width:47.45220017;stroke-dasharray:none" />
    <path
       d="m 15550,9406 c 0,-8 -13,-38 -28,-67 -48,-92 -143,-310 -177,-406 -163,-454 -214,-930 -159,-1473 14,-139 70,-495 99,-630 23,-108 66,-301 81,-365 149,-632 205,-1051 189,-1415 -7,-175 -35,-374 -60,-423 -8,-17 -13,-32 -11,-35 8,-7 145,35 251,78 83,33 260,128 293,155 l 40,34 12,118 c 24,220 -1,692 -51,963 -26,143 -52,280 -64,335 -7,33 -21,98 -30,145 -16,83 -47,221 -65,290 -5,19 -13,55 -19,80 -6,25 -21,95 -35,155 -81,352 -117,650 -117,955 1,368 60,682 172,915 l 29,59 -68,101 c -90,131 -209,327 -239,393 -23,50 -43,67 -43,38 z"
       id="path34"
       style="fill:#ffffff;fill-opacity:1;stroke:#276f21;stroke-opacity:1;stroke-width:47.45220017;stroke-dasharray:none" />
    <path
       d="m 4210,9379 c 0,-15 -101,-168 -247,-375 -141,-199 -384,-584 -515,-814 -52,-91 -208,-410 -208,-425 0,-3 -11,-29 -25,-58 -85,-186 -198,-557 -233,-767 -7,-36 -16,-92 -22,-125 -32,-196 -39,-503 -15,-700 39,-323 108,-561 246,-841 221,-450 580,-829 1044,-1101 191,-113 228,-133 231,-130 2,1 -3,21 -11,44 -50,145 -95,371 -120,611 l -7,62 -102,79 c -124,97 -289,266 -375,387 -188,265 -291,506 -352,824 -36,189 -36,558 1,725 4,22 16,76 25,120 25,121 99,380 130,450 7,17 18,48 25,70 21,69 119,289 195,439 99,194 219,392 445,731 105,157 190,294 190,304 0,35 -96,210 -225,408 -57,87 -75,107 -75,82 z"
       id="path35"
       style="fill:#ffffff;fill-opacity:1;stroke:#276f21;stroke-opacity:1;stroke-width:47.45220017;stroke-dasharray:none" />
    <path
       d="m 2940,9279 c 0,-7 -22,-58 -49,-114 -57,-118 -111,-261 -137,-363 l -18,-74 89,-85 c 162,-153 461,-404 481,-403 5,1 24,31 42,68 39,79 49,97 159,265 46,70 83,131 82,135 0,4 -26,23 -57,44 -108,69 -382,317 -510,462 -66,74 -82,87 -82,65 z"
       id="path36"
       style="fill:#ffffff;fill-opacity:1;stroke:#276f21;stroke-opacity:1;stroke-width:47.45220017;stroke-dasharray:none" />
    <path
       d="m 18333,9167 c -64,-96 -165,-218 -285,-342 l -109,-113 12,-69 c 15,-89 15,-399 0,-488 -36,-210 -90,-381 -173,-549 -177,-354 -424,-621 -780,-842 -112,-69 -324,-181 -428,-224 -41,-18 -88,-38 -105,-46 -52,-23 -217,-82 -295,-105 -41,-12 -76,-23 -78,-24 -2,-2 6,-34 18,-72 26,-82 80,-369 80,-424 0,-31 4,-39 18,-39 10,0 22,4 28,9 5,5 32,16 59,24 202,62 715,285 800,347 6,4 30,19 55,32 424,236 762,553 1001,938 136,220 236,465 290,710 74,333 78,645 14,1016 -17,95 -63,291 -74,311 -4,8 -22,-10 -48,-50 z"
       id="path37"
       style="fill:#ffffff;fill-opacity:1;stroke:#276f21;stroke-opacity:1;stroke-width:47.45220017;stroke-dasharray:none" />
    <path
       d="m 16174,8232 c -50,-37 -133,-96 -185,-132 -160,-111 -149,-97 -149,-208 0,-97 35,-500 44,-510 3,-2 33,18 68,45 116,92 402,290 511,354 92,54 95,59 62,116 -60,103 -249,403 -255,403 -3,-1 -46,-31 -96,-68 z"
       id="path38"
       style="fill:#ffffff;fill-opacity:1;stroke:#276f21;stroke-opacity:1;stroke-width:47.45220017;stroke-dasharray:none" />
    <path
       d="m 4208,8157 c -36,-62 -98,-166 -137,-231 -39,-66 -70,-120 -68,-122 1,-1 43,-28 92,-59 253,-162 449,-298 503,-348 17,-17 32,-27 32,-21 0,5 5,36 10,69 26,154 40,286 41,401 1,141 0,143 -85,201 -112,77 -283,197 -297,209 -8,8 -17,14 -20,14 -2,-1 -34,-51 -71,-113 z"
       id="path39"
       style="fill:#ffffff;fill-opacity:1;stroke:#276f21;stroke-opacity:1;stroke-width:47.45220017;stroke-dasharray:none" />
    <path
       d="m 5460,7384 c 0,-85 -36,-312 -81,-507 l -22,-97 47,-41 c 159,-140 423,-546 542,-834 100,-243 215,-700 274,-1090 12,-77 28,-179 36,-226 l 16,-87 61,5 c 70,6 458,61 463,66 2,2 -6,45 -17,97 -10,52 -26,136 -34,185 -142,897 -269,1282 -582,1768 -164,255 -338,463 -622,742 l -81,80 z"
       id="path40"
       style="fill:#ffffff;fill-opacity:1;stroke:#276f21;stroke-opacity:1;stroke-width:47.45220017;stroke-dasharray:none" />
    <path
       d="m 14939,7317 c -303,-320 -429,-480 -599,-757 -76,-124 -288,-533 -305,-588 -6,-20 -4,-22 12,-13 44,25 293,97 471,136 107,24 195,45 195,47 44,90 105,197 162,283 75,113 249,325 267,325 11,0 11,5 -25,180 -24,119 -48,284 -65,432 l -7,67 z"
       id="path41"
       style="fill:#ffffff;fill-opacity:1;stroke:#276f21;stroke-opacity:1;stroke-width:47.45220017;stroke-dasharray:none" />
    <path
       d="m 3641,6656 c -29,-242 -21,-491 17,-527 9,-9 105,-55 212,-102 181,-80 397,-158 615,-223 97,-29 592,-157 690,-179 248,-56 641,-147 693,-160 35,-9 66,-15 68,-13 2,3 -1,18 -6,34 -117,367 -165,490 -207,527 -11,9 -74,31 -139,47 -65,16 -274,68 -464,115 -599,149 -1137,350 -1390,519 l -78,53 z"
       id="path42"
       style="fill:#ffffff;fill-opacity:1;stroke:#276f21;stroke-opacity:1;stroke-width:47.45220017;stroke-dasharray:none" />
    <path
       d="m 10954,6265 c -70,-142 -89,-167 -216,-283 -45,-42 -48,-47 -48,-95 0,-29 7,-72 16,-97 9,-27 13,-58 9,-78 -10,-52 -108,-341 -170,-502 -31,-80 -69,-179 -85,-220 -15,-41 -35,-92 -44,-112 -12,-29 -13,-38 -4,-38 18,0 33,26 69,118 16,42 41,101 54,130 14,29 25,55 25,58 0,3 14,36 31,72 51,110 176,404 189,444 9,30 24,45 70,73 66,40 117,93 126,132 4,14 1,54 -6,87 -27,131 -24,162 41,364 36,110 14,90 -57,-53 z"
       id="path43"
       style="fill:#ffffff;fill-opacity:1;stroke:#276f21;stroke-opacity:1;stroke-width:47.45220017;stroke-dasharray:none" />
    <path
       d="m 10715,6236 c -82,-84 -178,-175 -212,-202 -34,-27 -58,-53 -54,-57 5,-5 7,-57 6,-115 -3,-86 -2,-96 5,-52 4,30 8,78 9,107 l 1,52 98,88 c 128,116 213,205 263,276 22,31 39,57 37,56 -2,0 -70,-69 -153,-153 z"
       id="path44"
       style="fill:#ffffff;fill-opacity:1;stroke:#276f21;stroke-opacity:1;stroke-width:47.45220017;stroke-dasharray:none" />
    <path
       d="m 17576,6341 c -52,-57 -254,-186 -436,-277 l -126,-63 -13,-68 c -63,-323 -211,-604 -464,-884 -287,-318 -632,-521 -1048,-618 -203,-47 -353,-63 -649,-68 -157,-3 -315,-1 -352,4 -73,10 -78,7 -78,-44 0,-40 -59,-298 -90,-391 -16,-48 -27,-89 -25,-91 3,-2 172,-4 377,-5 483,-1 647,16 1000,104 64,16 127,34 140,38 12,5 41,15 63,21 22,7 49,16 60,21 11,4 58,23 105,41 755,291 1380,1058 1515,1859 37,220 60,440 46,440 -4,0 -15,-8 -25,-19 z"
       id="path45"
       style="fill:#ffffff;fill-opacity:1;stroke:#276f21;stroke-opacity:1;stroke-width:47.45220017;stroke-dasharray:none" />
    <path
       d="m 15115,6084 c -614,-138 -828,-193 -1090,-284 -380,-131 -581,-229 -910,-445 -469,-308 -797,-646 -1245,-1280 -101,-143 -208,-291 -238,-328 -30,-38 -52,-69 -50,-71 38,-27 222,-134 330,-193 l 142,-76 15,24 c 9,13 46,66 83,119 37,52 89,126 115,164 158,229 396,534 551,704 297,329 796,671 1212,831 47,18 99,39 115,46 116,48 551,162 920,240 66,14 138,30 160,35 22,5 66,15 98,21 31,7 57,16 57,20 0,7 -10,66 -60,344 -5,28 -14,74 -19,104 -6,29 -11,55 -11,57 0,7 -20,3 -175,-32 z"
       id="path46"
       style="fill:#ffffff;fill-opacity:1;stroke:#276f21;stroke-opacity:1;stroke-width:47.45220017;stroke-dasharray:none" />
    <path
       d="m 6715,5713 c 26,-60 88,-304 115,-453 17,-96 33,-180 35,-186 2,-6 45,-34 97,-62 124,-66 284,-173 385,-255 l 82,-67 43,10 c 163,41 388,81 597,107 l 64,8 -36,25 c -20,14 -87,69 -149,123 -191,167 -391,312 -613,445 -121,72 -602,322 -621,322 -3,0 -3,-8 1,-17 z"
       id="path47"
       style="fill:#ffffff;fill-opacity:1;stroke:#276f21;stroke-opacity:1;stroke-width:47.45220017;stroke-dasharray:none" />
    <path
       d="m 4467,5533 c -15,-294 -2,-654 33,-915 83,-607 321,-1126 697,-1518 295,-308 574,-493 965,-639 444,-166 887,-202 1428,-116 185,30 525,128 750,217 82,33 94,38 225,99 50,23 114,52 143,65 39,18 51,28 44,37 -5,7 -45,57 -88,112 -44,55 -110,145 -148,200 -38,55 -72,103 -76,108 -3,4 -62,-21 -131,-56 -106,-53 -313,-136 -479,-191 -74,-24 -237,-63 -370,-87 -106,-19 -160,-23 -360,-23 -250,-1 -297,4 -501,54 -177,44 -264,76 -429,157 -243,119 -459,289 -642,505 -127,150 -199,258 -278,423 -127,262 -175,436 -232,835 -13,93 -19,574 -8,669 l 5,43 -170,44 c -141,36 -265,71 -356,100 -14,5 -17,-12 -22,-123 z"
       id="path48"
       style="fill:#ffffff;fill-opacity:1;stroke:#276f21;stroke-opacity:1;stroke-width:47.45220017;stroke-dasharray:none" />
    <path
       d="m 9120,5225 c -9,-11 -7,-18 9,-34 34,-34 79,-20 50,15 -22,27 -46,35 -59,19 z"
       id="path49"
       style="fill:#ffffff;fill-opacity:1;stroke:#276f21;stroke-opacity:1;stroke-width:47.45220017;stroke-dasharray:none" />
    <path
       d="m 14265,5175 c -220,-73 -363,-132 -407,-167 -12,-9 -24,-57 -43,-173 -38,-242 -59,-359 -75,-425 -4,-19 -18,-82 -30,-140 -12,-58 -30,-132 -40,-165 -10,-33 -30,-100 -45,-150 -31,-105 -79,-241 -108,-305 -118,-263 -208,-427 -299,-548 -27,-35 -47,-67 -44,-69 10,-10 241,-32 336,-32 52,-1 133,3 180,9 76,8 88,12 110,39 44,52 125,210 215,416 22,51 72,187 90,245 16,49 24,77 55,185 14,50 51,188 61,230 6,22 14,56 18,75 28,115 66,321 106,575 14,88 29,180 35,205 5,25 12,63 16,85 3,22 12,62 20,89 8,27 14,53 14,58 0,15 -34,7 -165,-37 z"
       id="path50"
       style="fill:#ffffff;fill-opacity:1;stroke:#276f21;stroke-opacity:1;stroke-width:47.45220017;stroke-dasharray:none" />
    <path
       d="m 9410,4982 c 0,-5 11,-14 25,-20 26,-12 33,-4 13,16 -14,14 -38,16 -38,4 z"
       id="path51"
       style="fill:#ffffff;fill-opacity:1;stroke:#276f21;stroke-opacity:1;stroke-width:47.45220017;stroke-dasharray:none" />
    <path
       d="m 9890,4955 c 0,-8 2,-15 4,-15 2,0 6,7 10,15 3,8 1,15 -4,15 -6,0 -10,-7 -10,-15 z"
       id="path52"
       style="fill:#ffffff;fill-opacity:1;stroke:#276f21;stroke-opacity:1;stroke-width:47.45220017;stroke-dasharray:none" />
    <path
       d="m 9425,4880 c -3,-5 1,-10 10,-10 9,0 13,5 10,10 -3,6 -8,10 -10,10 -2,0 -7,-4 -10,-10 z"
       id="path53"
       style="fill:#ffffff;fill-opacity:1;stroke:#276f21;stroke-opacity:1;stroke-width:47.45220017;stroke-dasharray:none" />
    <path
       d="m 9697,4872 c -26,-28 -21,-39 20,-47 29,-5 40,-3 50,11 11,15 10,21 -4,36 -21,23 -45,23 -66,0 z m 53,-12 c 0,-5 -9,-10 -21,-10 -11,0 -17,5 -14,10 3,6 13,10 21,10 8,0 14,-4 14,-10 z"
       id="path54"
       style="fill:#ffffff;fill-opacity:1;stroke:#276f21;stroke-opacity:1;stroke-width:47.45220017;stroke-dasharray:none" />
    <path
       d="m 9130,4840 c 0,-5 7,-10 15,-10 8,0 15,5 15,10 0,6 -7,10 -15,10 -8,0 -15,-4 -15,-10 z"
       id="path55"
       style="fill:#ffffff;fill-opacity:1;stroke:#276f21;stroke-opacity:1;stroke-width:47.45220017;stroke-dasharray:none" />
    <path
       d="m 9930,4770 c 0,-5 5,-10 11,-10 5,0 7,5 4,10 -3,6 -8,10 -11,10 -2,0 -4,-4 -4,-10 z"
       id="path56"
       style="fill:#ffffff;fill-opacity:1;stroke:#276f21;stroke-opacity:1;stroke-width:47.45220017;stroke-dasharray:none" />
    <path
       d="m 9230,4732 c 0,-5 7,-13 16,-16 10,-4 14,-1 12,6 -5,15 -28,23 -28,10 z"
       id="path57"
       style="fill:#ffffff;fill-opacity:1;stroke:#276f21;stroke-opacity:1;stroke-width:47.45220017;stroke-dasharray:none" />
    <path
       d="m 9395,4690 c 3,-5 11,-10 16,-10 6,0 7,5 4,10 -3,6 -11,10 -16,10 -6,0 -7,-4 -4,-10 z"
       id="path58"
       style="fill:#ffffff;fill-opacity:1;stroke:#276f21;stroke-opacity:1;stroke-width:47.45220017;stroke-dasharray:none" />
    <path
       d="m 9614,4689 c -7,-12 12,-29 32,-29 15,0 36,25 27,33 -10,11 -51,8 -59,-4 z"
       id="path59"
       style="fill:#ffffff;fill-opacity:1;stroke:#276f21;stroke-opacity:1;stroke-width:47.45220017;stroke-dasharray:none" />
    <path
       d="m 9795,4669 c -9,-14 26,-52 38,-40 12,12 -1,51 -18,51 -8,0 -17,-5 -20,-11 z"
       id="path60"
       style="fill:#ffffff;fill-opacity:1;stroke:#276f21;stroke-opacity:1;stroke-width:47.45220017;stroke-dasharray:none" />
    <path
       d="m 9660,4613 c 0,-12 5,-25 10,-28 13,-8 13,15 0,35 -8,12 -10,11 -10,-7 z"
       id="path61"
       style="fill:#ffffff;fill-opacity:1;stroke:#276f21;stroke-opacity:1;stroke-width:47.45220017;stroke-dasharray:none" />
    <path
       d="m 9710,4620 c -23,-14 3,-60 35,-60 25,0 25,1 10,29 -18,36 -27,42 -45,31 z"
       id="path62"
       style="fill:#ffffff;fill-opacity:1;stroke:#276f21;stroke-opacity:1;stroke-width:47.45220017;stroke-dasharray:none" />
    <path
       d="m 9920,4600 c 0,-5 5,-10 11,-10 5,0 7,5 4,10 -3,6 -8,10 -11,10 -2,0 -4,-4 -4,-10 z"
       id="path63"
       style="fill:#ffffff;fill-opacity:1;stroke:#276f21;stroke-opacity:1;stroke-width:47.45220017;stroke-dasharray:none" />
    <path
       d="m 9970,4580 c 0,-5 11,-10 25,-10 14,0 25,5 25,10 0,6 -11,10 -25,10 -14,0 -25,-4 -25,-10 z"
       id="path64"
       style="fill:#ffffff;fill-opacity:1;stroke:#276f21;stroke-opacity:1;stroke-width:47.45220017;stroke-dasharray:none" />
    <path
       d="m 13022,4433 c -107,-108 -297,-322 -290,-327 1,-1 57,-13 123,-26 66,-12 129,-26 140,-30 11,-5 79,-20 150,-35 72,-15 171,-38 221,-51 51,-13 94,-24 97,-24 8,0 33,85 76,265 69,283 68,255 12,255 -30,0 -301,52 -394,75 -25,7 -37,-2 -135,-102 z"
       id="path65"
       style="fill:#ffffff;fill-opacity:1;stroke:#276f21;stroke-opacity:1;stroke-width:47.45220017;stroke-dasharray:none" />
    <path
       d="m 8255,3999 c -93,-11 -176,-22 -183,-24 -9,-4 2,-22 33,-58 62,-68 150,-192 369,-522 268,-402 430,-615 631,-824 113,-118 318,-301 414,-369 l 63,-45 77,17 c 106,25 253,85 449,184 46,23 66,42 45,42 -20,0 -217,148 -345,260 -300,261 -549,541 -794,895 -50,72 -137,197 -194,279 -57,82 -112,158 -122,168 -16,16 -34,18 -145,17 -71,-1 -204,-10 -298,-20 z"
       id="path66"
       style="fill:#ffffff;fill-opacity:1;stroke:#276f21;stroke-opacity:1;stroke-width:47.45220017;stroke-dasharray:none" />
    <path
       d="m 9210,4010 c 0,-5 5,-10 11,-10 5,0 7,5 4,10 -3,6 -8,10 -11,10 -2,0 -4,-4 -4,-10 z"
       id="path67"
       style="fill:#ffffff;fill-opacity:1;stroke:#276f21;stroke-opacity:1;stroke-width:47.45220017;stroke-dasharray:none" />
    <path
       d="m 9356,3962 c -8,-14 20,-46 32,-38 7,4 12,11 12,16 0,13 -38,32 -44,22 z"
       id="path68"
       style="fill:#ffffff;fill-opacity:1;stroke:#276f21;stroke-opacity:1;stroke-width:47.45220017;stroke-dasharray:none" />
    <path
       d="m 10910,3881 c -93,-30 -270,-114 -375,-178 -55,-33 -100,-63 -100,-66 0,-5 176,-136 389,-289 558,-401 1232,-739 1756,-881 447,-121 665,-152 1015,-144 188,4 257,9 379,31 344,60 665,188 945,375 232,156 484,396 656,626 47,63 168,263 230,380 21,39 43,76 49,84 13,17 17,18 -174,-32 -181,-47 -363,-77 -468,-77 h -58 l -54,-77 c -81,-118 -323,-354 -453,-441 -267,-181 -563,-292 -891,-332 -157,-20 -467,-8 -641,25 -252,47 -497,120 -770,228 -174,69 -528,244 -700,347 -148,88 -484,309 -596,391 -37,27 -70,49 -75,48 -5,0 -34,-8 -64,-18 z"
       id="path69"
       style="fill:#ffffff;fill-opacity:1;stroke:#276f21;stroke-opacity:1;stroke-width:47.45220017;stroke-dasharray:none" />
    <path
       d="m 6915,3750 c -55,-11 -326,-47 -407,-55 -38,-4 -68,-8 -68,-10 0,-3 28,-74 40,-100 5,-11 21,-49 36,-85 53,-131 211,-427 256,-483 30,-36 96,-47 298,-47 138,0 327,14 338,25 2,2 -23,39 -55,82 -113,149 -244,387 -318,580 -43,111 -39,108 -120,93 z"
       id="path70"
       style="fill:#ffffff;fill-opacity:1;stroke:#276f21;stroke-opacity:1;stroke-width:47.45220017;stroke-dasharray:none" />
    <path
       d="m 11080,2992 c 0,-14 -253,-274 -365,-375 -385,-346 -786,-558 -1183,-622 -323,-53 -760,-8 -1080,111 -117,44 -255,111 -340,166 -53,34 -66,39 -85,30 -38,-18 -79,-30 -177,-53 -52,-12 -117,-27 -145,-35 -67,-18 -203,-34 -287,-34 -37,0 -68,-4 -68,-10 0,-12 155,-136 270,-217 269,-189 532,-312 870,-408 515,-145 1091,-130 1575,42 465,165 931,505 1432,1046 l 81,88 -62,31 c -103,52 -183,97 -307,174 -123,76 -129,79 -129,66 z"
       id="path71"
       style="fill:#ffffff;fill-opacity:1;stroke:#276f21;stroke-opacity:1;stroke-width:47.45220017;stroke-dasharray:none" />
    <path
       d="m 12460,2284 c -210,-146 -556,-264 -867,-295 -103,-11 -441,-6 -508,6 -27,5 -44,-6 -155,-95 -163,-132 -276,-201 -450,-277 -18,-8 -21,-12 -10,-16 8,-2 44,-14 80,-25 310,-98 485,-126 800,-126 581,1 1055,144 1540,468 58,38 149,106 204,150 54,45 108,88 119,97 20,16 18,17 -44,24 -204,22 -431,66 -569,111 -41,13 -75,24 -75,23 0,0 -29,-20 -65,-45 z"
       id="path72"
       style="fill:#ffffff;fill-opacity:1;stroke:#276f21;stroke-opacity:1;stroke-width:47.45220017;stroke-dasharray:none" />
  </g>
</svg>
